<mxfile host="app.diagrams.net" modified="2023-07-13T02:08:02.085Z" agent="Mozilla/5.0 (Macintosh; Intel Mac OS X 10_15_7) AppleWebKit/537.36 (KHTML, like Gecko) Chrome/114.0.0.0 Safari/537.36" version="21.3.6" etag="4CRhGgRnXVpu1cJxXvUe" type="github">
  <diagram name="第 1 页" id="bwUDcg0LUAwdhBX6hYpj">
    <mxGraphModel>
      <root>
        <mxCell id="0" />
        <mxCell id="1" parent="0" />
      </root>
    </mxGraphModel>
  </diagram>
</mxfile>
